<svg xmlns="http://www.w3.org/2000/svg" viewBox="0 0 1200 1200" width="1200" height="1200" preserveAspectRatio="xMidYMid slice">
  <defs>
    <filter id="warp" x="-30%" y="-30%" width="160%" height="160%">
      <feTurbulence type="fractalNoise" baseFrequency="0.0035 0.005" numOctaves="2" seed="11" result="noise" />
      <feDisplacementMap in="SourceGraphic" in2="noise" scale="170" xChannelSelector="R" yChannelSelector="G" />
    </filter>
  </defs>
  <rect x="0" y="0" width="1200" height="1200" fill="#F48FB8" />
  <g filter="url(#warp)">
    <rect x="-200" y="-200" width="160" height="160" fill="#AFD8F0" /><rect x="-200" y="-40" width="160" height="160" fill="#F48FB8" /><rect x="-200" y="120" width="160" height="160" fill="#AFD8F0" /><rect x="-200" y="280" width="160" height="160" fill="#F48FB8" /><rect x="-200" y="440" width="160" height="160" fill="#AFD8F0" /><rect x="-200" y="600" width="160" height="160" fill="#F48FB8" /><rect x="-200" y="760" width="160" height="160" fill="#AFD8F0" /><rect x="-200" y="920" width="160" height="160" fill="#F48FB8" /><rect x="-200" y="1080" width="160" height="160" fill="#AFD8F0" /><rect x="-200" y="1240" width="160" height="160" fill="#F48FB8" /><rect x="-40" y="-200" width="160" height="160" fill="#F48FB8" /><rect x="-40" y="-40" width="160" height="160" fill="#AFD8F0" /><rect x="-40" y="120" width="160" height="160" fill="#F48FB8" /><rect x="-40" y="280" width="160" height="160" fill="#AFD8F0" /><rect x="-40" y="440" width="160" height="160" fill="#F48FB8" /><rect x="-40" y="600" width="160" height="160" fill="#AFD8F0" /><rect x="-40" y="760" width="160" height="160" fill="#F48FB8" /><rect x="-40" y="920" width="160" height="160" fill="#AFD8F0" /><rect x="-40" y="1080" width="160" height="160" fill="#F48FB8" /><rect x="-40" y="1240" width="160" height="160" fill="#AFD8F0" /><rect x="120" y="-200" width="160" height="160" fill="#AFD8F0" /><rect x="120" y="-40" width="160" height="160" fill="#F48FB8" /><rect x="120" y="120" width="160" height="160" fill="#AFD8F0" /><rect x="120" y="280" width="160" height="160" fill="#F48FB8" /><rect x="120" y="440" width="160" height="160" fill="#AFD8F0" /><rect x="120" y="600" width="160" height="160" fill="#F48FB8" /><rect x="120" y="760" width="160" height="160" fill="#AFD8F0" /><rect x="120" y="920" width="160" height="160" fill="#F48FB8" /><rect x="120" y="1080" width="160" height="160" fill="#AFD8F0" /><rect x="120" y="1240" width="160" height="160" fill="#F48FB8" /><rect x="280" y="-200" width="160" height="160" fill="#F48FB8" /><rect x="280" y="-40" width="160" height="160" fill="#AFD8F0" /><rect x="280" y="120" width="160" height="160" fill="#F48FB8" /><rect x="280" y="280" width="160" height="160" fill="#AFD8F0" /><rect x="280" y="440" width="160" height="160" fill="#F48FB8" /><rect x="280" y="600" width="160" height="160" fill="#AFD8F0" /><rect x="280" y="760" width="160" height="160" fill="#F48FB8" /><rect x="280" y="920" width="160" height="160" fill="#AFD8F0" /><rect x="280" y="1080" width="160" height="160" fill="#F48FB8" /><rect x="280" y="1240" width="160" height="160" fill="#AFD8F0" /><rect x="440" y="-200" width="160" height="160" fill="#AFD8F0" /><rect x="440" y="-40" width="160" height="160" fill="#F48FB8" /><rect x="440" y="120" width="160" height="160" fill="#AFD8F0" /><rect x="440" y="280" width="160" height="160" fill="#F48FB8" /><rect x="440" y="440" width="160" height="160" fill="#AFD8F0" /><rect x="440" y="600" width="160" height="160" fill="#F48FB8" /><rect x="440" y="760" width="160" height="160" fill="#AFD8F0" /><rect x="440" y="920" width="160" height="160" fill="#F48FB8" /><rect x="440" y="1080" width="160" height="160" fill="#AFD8F0" /><rect x="440" y="1240" width="160" height="160" fill="#F48FB8" /><rect x="600" y="-200" width="160" height="160" fill="#F48FB8" /><rect x="600" y="-40" width="160" height="160" fill="#AFD8F0" /><rect x="600" y="120" width="160" height="160" fill="#F48FB8" /><rect x="600" y="280" width="160" height="160" fill="#AFD8F0" /><rect x="600" y="440" width="160" height="160" fill="#F48FB8" /><rect x="600" y="600" width="160" height="160" fill="#AFD8F0" /><rect x="600" y="760" width="160" height="160" fill="#F48FB8" /><rect x="600" y="920" width="160" height="160" fill="#AFD8F0" /><rect x="600" y="1080" width="160" height="160" fill="#F48FB8" /><rect x="600" y="1240" width="160" height="160" fill="#AFD8F0" /><rect x="760" y="-200" width="160" height="160" fill="#AFD8F0" /><rect x="760" y="-40" width="160" height="160" fill="#F48FB8" /><rect x="760" y="120" width="160" height="160" fill="#AFD8F0" /><rect x="760" y="280" width="160" height="160" fill="#F48FB8" /><rect x="760" y="440" width="160" height="160" fill="#AFD8F0" /><rect x="760" y="600" width="160" height="160" fill="#F48FB8" /><rect x="760" y="760" width="160" height="160" fill="#AFD8F0" /><rect x="760" y="920" width="160" height="160" fill="#F48FB8" /><rect x="760" y="1080" width="160" height="160" fill="#AFD8F0" /><rect x="760" y="1240" width="160" height="160" fill="#F48FB8" /><rect x="920" y="-200" width="160" height="160" fill="#F48FB8" /><rect x="920" y="-40" width="160" height="160" fill="#AFD8F0" /><rect x="920" y="120" width="160" height="160" fill="#F48FB8" /><rect x="920" y="280" width="160" height="160" fill="#AFD8F0" /><rect x="920" y="440" width="160" height="160" fill="#F48FB8" /><rect x="920" y="600" width="160" height="160" fill="#AFD8F0" /><rect x="920" y="760" width="160" height="160" fill="#F48FB8" /><rect x="920" y="920" width="160" height="160" fill="#AFD8F0" /><rect x="920" y="1080" width="160" height="160" fill="#F48FB8" /><rect x="920" y="1240" width="160" height="160" fill="#AFD8F0" /><rect x="1080" y="-200" width="160" height="160" fill="#AFD8F0" /><rect x="1080" y="-40" width="160" height="160" fill="#F48FB8" /><rect x="1080" y="120" width="160" height="160" fill="#AFD8F0" /><rect x="1080" y="280" width="160" height="160" fill="#F48FB8" /><rect x="1080" y="440" width="160" height="160" fill="#AFD8F0" /><rect x="1080" y="600" width="160" height="160" fill="#F48FB8" /><rect x="1080" y="760" width="160" height="160" fill="#AFD8F0" /><rect x="1080" y="920" width="160" height="160" fill="#F48FB8" /><rect x="1080" y="1080" width="160" height="160" fill="#AFD8F0" /><rect x="1080" y="1240" width="160" height="160" fill="#F48FB8" /><rect x="1240" y="-200" width="160" height="160" fill="#F48FB8" /><rect x="1240" y="-40" width="160" height="160" fill="#AFD8F0" /><rect x="1240" y="120" width="160" height="160" fill="#F48FB8" /><rect x="1240" y="280" width="160" height="160" fill="#AFD8F0" /><rect x="1240" y="440" width="160" height="160" fill="#F48FB8" /><rect x="1240" y="600" width="160" height="160" fill="#AFD8F0" /><rect x="1240" y="760" width="160" height="160" fill="#F48FB8" /><rect x="1240" y="920" width="160" height="160" fill="#AFD8F0" /><rect x="1240" y="1080" width="160" height="160" fill="#F48FB8" /><rect x="1240" y="1240" width="160" height="160" fill="#AFD8F0" />
    <line x1="-200" y1="-200" x2="-200" y2="1400" stroke="#3D1220" stroke-width="4" /><line x1="-200" y1="-200" x2="1400" y2="-200" stroke="#3D1220" stroke-width="4" /><line x1="-40" y1="-200" x2="-40" y2="1400" stroke="#3D1220" stroke-width="4" /><line x1="-200" y1="-40" x2="1400" y2="-40" stroke="#3D1220" stroke-width="4" /><line x1="120" y1="-200" x2="120" y2="1400" stroke="#3D1220" stroke-width="4" /><line x1="-200" y1="120" x2="1400" y2="120" stroke="#3D1220" stroke-width="4" /><line x1="280" y1="-200" x2="280" y2="1400" stroke="#3D1220" stroke-width="4" /><line x1="-200" y1="280" x2="1400" y2="280" stroke="#3D1220" stroke-width="4" /><line x1="440" y1="-200" x2="440" y2="1400" stroke="#3D1220" stroke-width="4" /><line x1="-200" y1="440" x2="1400" y2="440" stroke="#3D1220" stroke-width="4" /><line x1="600" y1="-200" x2="600" y2="1400" stroke="#3D1220" stroke-width="4" /><line x1="-200" y1="600" x2="1400" y2="600" stroke="#3D1220" stroke-width="4" /><line x1="760" y1="-200" x2="760" y2="1400" stroke="#3D1220" stroke-width="4" /><line x1="-200" y1="760" x2="1400" y2="760" stroke="#3D1220" stroke-width="4" /><line x1="920" y1="-200" x2="920" y2="1400" stroke="#3D1220" stroke-width="4" /><line x1="-200" y1="920" x2="1400" y2="920" stroke="#3D1220" stroke-width="4" /><line x1="1080" y1="-200" x2="1080" y2="1400" stroke="#3D1220" stroke-width="4" /><line x1="-200" y1="1080" x2="1400" y2="1080" stroke="#3D1220" stroke-width="4" /><line x1="1240" y1="-200" x2="1240" y2="1400" stroke="#3D1220" stroke-width="4" /><line x1="-200" y1="1240" x2="1400" y2="1240" stroke="#3D1220" stroke-width="4" /><line x1="1400" y1="-200" x2="1400" y2="1400" stroke="#3D1220" stroke-width="4" /><line x1="-200" y1="1400" x2="1400" y2="1400" stroke="#3D1220" stroke-width="4" />
  </g>
</svg>